<?xml version="1.0" encoding="utf-8"?>
<!-- Generator: Adobe Illustrator 23.0.3, SVG Export Plug-In . SVG Version: 6.00 Build 0)  -->
<svg version="1.1" id="Capa_1" xmlns="http://www.w3.org/2000/svg" xmlns:xlink="http://www.w3.org/1999/xlink" x="0px" y="0px"
	 viewBox="0 0 116.3 116.3" style="enable-background:new 0 0 116.3 116.3;" xml:space="preserve">
<style type="text/css">
	.st0{fill:#242424;}
	.st1{fill:#211F20;}
	.st2{fill:#232323;}
	.st3{fill:#252525;}
	.st4{fill:#222222;}
	.st5{fill:#1F1F1F;}
	.st6{fill:#211E1F;}
	.st7{fill:#201E1F;}
	.st8{fill:#212020;}
	.st9{fill:#221F20;}
	.st10{fill:#222021;}
	.st11{fill:#201F20;}
	.st12{fill:#0383B2;}
	.st13{fill:#66B623;}
	.st14{fill:#1AAC6E;}
	.st15{fill:#FF3530;}
	.st16{fill:#111224;}
	.st17{fill:#FEFEFE;}
	.st18{fill:#F8F8F8;}
	.st19{fill:#FDFDFD;}
	.st20{fill:#262626;}
	.st21{fill:#FBFBFB;}
	.st22{fill:#FCFAFB;}
	.st23{fill:#201D1E;}
	.st24{fill:#FDFCFC;}
	.st25{fill:#FBFAFB;}
	.st26{fill:#2A2A2A;}
	.st27{fill:#FEFDFD;}
	.st28{fill:#FDFCFD;}
	.st29{fill:#FCFDFD;}
	.st30{fill:#FDFBFC;stroke:#2A2A2A;stroke-width:6;stroke-miterlimit:10;}
	.st31{fill:#FDFBFC;stroke:#2A2A2A;stroke-width:6;stroke-linecap:round;stroke-miterlimit:10;}
	.st32{fill:#FDFBFC;}
	.st33{fill:#F3F1F2;}
	.st34{fill:#F7F5F6;}
	.st35{fill:#F4F2F3;}
	.st36{fill:#244959;}
	.st37{fill:#FF6D3A;}
	.st38{fill:#12E2E2;}
	.st39{fill:#F1C667;}
	.st40{fill:#F0C76D;}
	.st41{fill:#FFDF8E;}
	.st42{fill:#2C4156;}
	.st43{fill:#12E2E2;stroke:#244959;stroke-width:6;stroke-miterlimit:10;}
	.st44{fill:#18AE89;}
</style>
<g>
	<g>
		<path class="st16" d="M49.3,27.9c-7.9-0.1-14.4,6.1-14.4,14c0,7.6,6.2,13.9,13.8,14.1c7.7,0.2,14.1-5.9,14.3-13.6
			C63.3,34.5,57.3,28.1,49.3,27.9z M49.3,50.6c-5,0.1-9-3.8-9-8.7c0-4.6,3.9-8.6,8.6-8.8c4.8-0.1,9,4,9,8.8
			C57.9,46.7,54,50.5,49.3,50.6z"/>
		<path class="st16" d="M62.2,91.5c-8.7,0-17.4,0-26.2,0c-1.9,0-3.5,0.3-3.5,2.7c0.1,2.4,1.8,2.6,3.6,2.6c4.2,0,8.4,0,12.6,0
			c0,0,0,0,0-0.1c4.5,0,9,0,13.5,0c1.7,0,3.2-0.4,3.3-2.4C65.7,92.1,64.2,91.5,62.2,91.5z"/>
		<path class="st16" d="M96.4,67.2c0,3.4,0,6.9,0,10.3c0,9.6-3.4,12.8-13.1,12.4c-2.3-0.1-2.9-0.8-2.9-3c0.1-7.3,0.1-14.6,0-22
			c0-2.9,0.5-5.4,1.7-8.1c6.7-14.6,2.8-32-9.4-42.5C60.7,3.9,42.4,2.7,29.3,11.4c-13.7,9.2-20.4,26-14.7,41.3
			c2.8,7.5,3.1,14.7,3.1,22.3c0,7.6-0.1,15.3,0,22.9c0.1,7.5,4.8,12.2,12.3,12.2c6.2,0.1,12.5,0,18.7,0c6.7,0,13.4,0.1,20.1,0
			c6.1-0.1,11.3-4.3,11.3-10.2c0-4.8,2.1-5,5.8-4.9c9.9,0.1,15.5-5.6,15.7-15.6c0.1-5.1,0.2-10.3,0-15.4 M75.2,77.3
			c0,6.8,0,13.7-0.1,20.5c-0.1,4.6-2.4,6.9-6.9,6.9c-12.8,0.1-25.5,0.1-38.3,0c-4.3,0-6.8-2.4-6.8-6.6c-0.1-9.9,0-19.9,0-30.5
			c18.1,14,33.3,14.1,52.2,0.1C75.2,71.3,75.2,74.3,75.2,77.3z M49.2,72.9C32,73,18,59,18,41.9C18,24.7,32,11,49.4,11
			c16.9,0.1,31,14.2,30.8,31C80,59.1,66.1,72.9,49.2,72.9z"/>
	</g>
</g>
<path class="st16" d="M98.5,67.2c-6.2,0-11.3-5.1-11.3-11.3s5.1-11.3,11.3-11.3s11.3,5.1,11.3,11.3S104.7,67.2,98.5,67.2z
	 M98.5,50.6c-2.9,0-5.3,2.4-5.3,5.3s2.4,5.3,5.3,5.3s5.3-2.4,5.3-5.3S101.4,50.6,98.5,50.6z"/>
</svg>
